<svg width="32" height="31" viewBox="0 0 32 31" fill="none" xmlns="http://www.w3.org/2000/svg">
<path d="M31.984 11.3C31.984 10.148 31.392 9.13998 30.48 8.57998L16 0.0999756L1.52 8.57998C0.608 9.13998 0 10.148 0 11.3V27.3C0 29.06 1.44 30.5 3.2 30.5H28.8C30.56 30.5 32 29.06 32 27.3L31.984 11.3ZM16 19.3L2.784 11.044L16 3.29998L29.216 11.044L16 19.3Z" fill="#447EAC"/>
<path d="M12.6667 14.7055V14.7055C14.8155 13.2562 17.629 13.2562 19.7778 14.7055V14.7055" stroke="#FF7477" stroke-width="1.5"/>
<path d="M10.6667 12.4352V12.4352C13.9262 10.3833 18.0738 10.3833 21.3334 12.4352V12.4352" stroke="#FF7477" stroke-width="1.5"/>
<path d="M8 10.3185V10.3185C12.9247 7.36598 19.0753 7.36598 24 10.3185V10.3185" stroke="#FF7477" stroke-width="1.5"/>
</svg>
