<svg width="16" height="16" viewBox="0 0 16 16" fill="none" xmlns="http://www.w3.org/2000/svg">
<path d="M15.992 5.69998C15.992 5.12398 15.696 4.61998 15.24 4.33998L8 0.0999756L0.76 4.33998C0.304 4.61998 0 5.12398 0 5.69998V13.7C0 14.58 0.72 15.3 1.6 15.3H14.4C15.28 15.3 16 14.58 16 13.7L15.992 5.69998ZM8 9.69997L1.392 5.57198L8 1.69998L14.608 5.57198L8 9.69997Z" fill="#447EAC"/>
<path d="M6.33334 7.40275V7.40275C7.40776 6.67808 8.81449 6.67808 9.88891 7.40275V7.40275" stroke="#FF7477" stroke-width="0.5"/>
<path d="M5.33334 6.26757V6.26757C6.9631 5.24162 9.03692 5.24162 10.6667 6.26757V6.26757" stroke="#FF7477" stroke-width="0.5"/>
<path d="M4 5.20925V5.20925C6.46236 3.73298 9.53766 3.73298 12 5.20925V5.20925" stroke="#FF7477" stroke-width="0.5"/>
</svg>
