<svg width="96" height="92" viewBox="0 0 96 92" fill="none" xmlns="http://www.w3.org/2000/svg">
<path d="M95.952 33.6C95.952 30.144 94.176 27.12 91.44 25.44L48 0L4.56 25.44C1.824 27.12 0 30.144 0 33.6V81.6C0 86.88 4.32 91.2 9.6 91.2H86.4C91.68 91.2 96 86.88 96 81.6L95.952 33.6ZM48 57.6L8.352 32.832L48 9.6L87.648 32.832L48 57.6Z" fill="#447EAC"/>
<path d="M38.0001 45.5499L39.1122 44.7998C44.8866 40.9051 52.4469 40.9051 58.2213 44.7998L59.3334 45.5499" stroke="#FF7477" stroke-width="4.5"/>
<path d="M32 38.7389L35.256 36.6892C43.0447 31.7861 52.9555 31.7861 60.7441 36.6892L64.0001 38.7389" stroke="#FF7477" stroke-width="4.5"/>
<path d="M24 32.3889L30.4279 28.5352C41.2451 22.0499 54.755 22.0499 65.5723 28.5352L72.0001 32.3889" stroke="#FF7477" stroke-width="4.5"/>
</svg>
